<?xml version="1.0" standalone="no"?>
<!DOCTYPE svg PUBLIC "-//W3C//DTD SVG 20010904//EN"
 "http://www.w3.org/TR/2001/REC-SVG-20010904/DTD/svg10.dtd">
<svg version="1.0" xmlns="http://www.w3.org/2000/svg"
 width="260.000000pt" height="260.000000pt" viewBox="0 0 260.000000 260.000000"
 preserveAspectRatio="xMidYMid meet">
<metadata>
Created by potrace 1.11, written by Peter Selinger 2001-2013
</metadata>
<g transform="translate(0.000000,260.000000) scale(0.100000,-0.100000)"
fill="#000000" stroke="none">
<path d="M1083 2541 c-32 -20 -52 -73 -40 -105 4 -9 -16 -34 -51 -66 -31 -29
-111 -103 -177 -165 -170 -159 -190 -175 -215 -175 -32 0 -83 -26 -114 -59
-19 -20 -28 -42 -31 -74 -4 -39 0 -49 29 -83 l33 -39 -111 -246 c-106 -235
-112 -246 -138 -246 -57 0 -106 -46 -111 -105 -4 -38 6 -63 39 -99 l24 -25
-15 -240 c-9 -131 -17 -251 -18 -265 -1 -14 -19 -45 -39 -69 -21 -23 -38 -48
-39 -54 0 -6 -2 -22 -5 -34 -6 -34 24 -90 57 -107 59 -31 126 -13 155 41 l18
33 90 3 c50 2 260 4 466 6 l375 2 15 -32 c31 -67 125 -87 179 -37 l22 21 222
-88 c140 -56 232 -98 248 -114 17 -17 39 -27 64 -28 33 -3 43 3 86 48 47 49
66 94 57 137 -2 10 13 52 32 93 20 41 70 148 111 237 60 131 79 164 99 171 15
5 43 25 63 44 32 30 37 42 37 79 0 63 -41 118 -87 119 -23 0 -29 15 -38 105
-5 47 -13 120 -20 175 -4 27 -13 108 -21 180 -2 25 -7 64 -9 87 -4 33 0 50 19
78 55 81 3 175 -98 175 -29 0 -43 13 -142 127 -60 70 -125 145 -146 167 l-36
41 20 27 c66 93 -6 222 -118 213 -25 -2 -56 -13 -70 -24 -15 -12 -33 -21 -41
-21 -8 0 -69 15 -137 34 -67 19 -133 37 -146 40 -87 19 -196 51 -199 59 -2 5
-15 22 -30 38 -35 38 -77 45 -118 20z m390 -200 c120 -33 220 -61 222 -63 2
-2 5 -19 6 -39 3 -34 -7 -49 -150 -218 -114 -134 -158 -180 -170 -176 -9 4
-27 9 -41 12 -13 2 -26 5 -27 7 -3 2 -101 392 -108 427 -2 9 -8 32 -13 52 -8
27 -7 38 5 50 19 19 9 20 276 -52z m-357 15 c3 -8 7 -20 8 -28 1 -7 28 -119
61 -249 l59 -237 -27 -32 c-15 -17 -27 -35 -27 -40 0 -5 -104 27 -232 71 -127
43 -232 79 -233 79 -2 0 -11 17 -22 38 l-19 39 76 68 c74 67 187 169 285 259
54 50 63 53 71 32z m667 -217 c12 -7 33 -12 48 -11 21 0 38 -12 76 -55 69 -81
92 -108 177 -206 42 -48 76 -91 76 -95 -1 -27 -27 -29 -356 -31 l-342 -2 -6
26 c-6 22 1 36 31 73 20 26 40 49 43 52 3 3 24 27 45 55 22 27 47 56 55 65 8
8 33 38 55 65 22 27 45 55 50 62 13 16 21 16 48 2z m-838 -365 l230 -78 21
-42 20 -42 -82 -119 c-205 -294 -206 -295 -217 -284 -6 6 -19 11 -28 11 -11 0
-23 18 -37 58 -61 172 -84 238 -86 247 -1 6 -4 15 -7 20 -4 6 -25 67 -48 137
-34 102 -40 131 -31 147 6 12 16 21 23 21 7 1 116 -34 242 -76z m-236 -277
l92 -268 -30 -35 c-17 -19 -31 -41 -31 -50 0 -12 -9 -13 -47 -9 -27 4 -55 8
-63 10 -8 2 -35 7 -60 11 -25 3 -52 7 -60 9 -8 2 -39 6 -67 10 -29 4 -53 12
-53 17 0 6 -8 22 -19 36 l-19 27 44 100 c47 106 57 128 97 215 14 30 39 86 56
125 31 68 50 91 62 77 3 -4 47 -128 98 -275z m1451 163 c6 -11 -14 -53 -69
-145 -42 -72 -112 -189 -155 -261 -73 -124 -79 -131 -108 -130 -28 1 -40 14
-122 131 -172 243 -256 369 -256 381 0 37 18 39 364 39 291 0 339 -2 346 -15z
m91 -67 c0 -5 2 -17 3 -28 2 -11 6 -49 10 -84 4 -36 9 -79 11 -95 2 -17 7 -54
10 -81 2 -28 11 -105 20 -173 14 -119 14 -124 -5 -144 -10 -11 -22 -33 -25
-49 l-6 -28 -82 30 c-45 17 -111 41 -146 52 -50 17 -66 28 -73 47 -5 15 -17
32 -27 39 -20 15 -26 1 115 239 26 42 55 93 66 112 70 123 102 170 114 170 8
0 14 -3 15 -7z m-796 -101 c34 -48 111 -160 173 -249 103 -148 112 -164 100
-183 -13 -22 -32 -23 -168 -5 -19 3 -55 7 -80 10 -25 2 -61 7 -80 9 -19 3
-114 15 -210 26 -200 24 -210 26 -210 46 0 11 168 262 269 401 12 17 29 23 71
25 30 3 60 5 65 6 6 1 37 -38 70 -86z m-910 -397 c55 -9 116 -18 135 -22 19
-3 41 -6 47 -7 13 -2 42 -35 43 -47 0 -3 -15 -21 -32 -40 -18 -19 -58 -62 -88
-95 -30 -33 -95 -105 -145 -159 -180 -198 -198 -216 -209 -205 -5 5 -18 10
-27 10 -12 0 -17 6 -14 20 4 18 8 82 20 280 13 207 15 217 46 230 15 7 35 23
44 36 13 20 22 24 48 19 18 -3 77 -12 132 -20z m600 -60 c49 -7 458 -57 485
-60 14 -1 37 -3 51 -3 20 -2 29 -9 33 -27 6 -22 -16 -61 -129 -230 -113 -170
-139 -203 -153 -196 -9 5 -27 7 -39 5 -24 -4 -24 -4 -229 241 -64 77 -137 164
-161 193 -25 28 -40 52 -35 52 5 0 12 10 15 21 5 20 10 21 69 15 35 -4 77 -9
93 -11z m-260 -67 c18 -2 172 -177 377 -428 46 -56 46 -58 28 -77 -19 -22 24
-20 -717 -28 -259 -3 -255 -4 -170 86 28 31 90 98 137 150 47 51 96 105 110
119 14 15 58 63 99 108 58 64 79 80 95 76 12 -3 30 -6 41 -6z m1354 -118 c10
-5 20 -8 22 -6 2 2 14 -11 25 -29 l21 -32 -64 -139 c-36 -77 -80 -171 -99
-211 l-33 -71 -48 18 -48 18 -27 118 c-15 66 -30 129 -33 142 -3 12 -8 34 -11
50 -8 34 -8 36 -24 104 -12 54 -12 59 7 75 11 10 25 28 32 40 l11 22 126 -44
c69 -25 133 -49 143 -55z m-406 0 c7 -6 59 -215 97 -390 6 -25 13 -56 16 -70
3 -15 0 -28 -9 -35 -19 -14 -47 -70 -47 -95 0 -11 -4 -20 -10 -20 -5 0 -91 32
-190 72 -197 78 -182 66 -183 148 0 9 59 105 132 213 126 189 133 197 159 191
15 -4 31 -10 35 -14z"/>
</g>
</svg>
